#tb 0: 1/44100
#media_type 0: audio
#codec_id 0: pcm_s16le
#sample_rate 0: 44100
#channel_layout_name 0: stereo
0,          0,          0,     1024,     4096, 0x8801f679
0,       1024,       1024,     1024,     4096, 0xbf6906ca
0,       2048,       2048,     1024,     4096, 0xec8eeac9
0,       3072,       3072,     1024,     4096, 0x938d0541
0,       4096,       4096,     1024,     4096, 0xf0820121
0,       5120,       5120,     1024,     4096, 0xd1da0083
0,       6144,       6144,     1024,     4096, 0x13e502bf
0,       7168,       7168,     1024,     4096, 0xcc68046f
0,       8192,       8192,     1024,     4096, 0xb3e704db
0,       9216,       9216,     1024,     4096, 0x8a9f07c0
0,      10240,      10240,     1024,     4096, 0x50e0f62f
0,      11264,      11264,     1024,     4096, 0xea48f6b6
0,      12288,      12288,     1024,     4096, 0x76c31e7c
0,      13312,      13312,     1024,     4096, 0x3629effc
0,      14336,      14336,     1024,     4096, 0x3c450759
0,      15360,      15360,     1024,     4096, 0x9569f61c
0,      16384,      16384,     1024,     4096, 0x0685f076
0,      17408,      17408,     1024,     4096, 0x3fc3fb15
0,      18432,      18432,     1024,     4096, 0x7dc5fb44
0,      19456,      19456,     1024,     4096, 0xcc3e03ab
